<?xml version="1.0" standalone="no"?>
<!DOCTYPE svg PUBLIC "-//W3C//DTD SVG 20010904//EN"
 "http://www.w3.org/TR/2001/REC-SVG-20010904/DTD/svg10.dtd">
<svg version="1.0" xmlns="http://www.w3.org/2000/svg"
 width="700.000000pt" height="700.000000pt" viewBox="0 0 700.000000 700.000000"
 preserveAspectRatio="xMidYMid meet">
<metadata>
Created by potrace 1.11, written by Peter Selinger 2001-2013
</metadata>
<g transform="translate(0.000000,700.000000) scale(0.100000,-0.100000)"
fill="#000000" stroke="none">
<path d="M6955 6261 c-6 -6 -48 -33 -95 -62 -122 -74 -387 -267 -451 -328 -9
-9 -38 -34 -65 -56 -155 -128 -473 -446 -590 -591 -43 -53 -83 -100 -100 -118
-6 -7 -57 -71 -112 -143 -263 -344 -505 -739 -692 -1128 -79 -167 -122 -251
-185 -370 -88 -164 -79 -150 -152 -263 l-34 -54 -50 101 c-27 55 -49 103 -49
106 0 12 -149 232 -186 275 -148 169 -296 263 -479 304 -93 20 -287 15 -415
-12 -379 -81 -748 -299 -1100 -652 -99 -100 -211 -223 -271 -300 -24 -30 -46
-57 -49 -60 -9 -7 -128 -165 -163 -215 -200 -287 -337 -515 -487 -815 -35 -69
-64 -126 -65 -128 -8 -10 -163 -56 -245 -73 -212 -45 -410 -63 -707 -63 -154
-1 -203 -4 -203 -13 0 -22 131 -152 199 -197 117 -78 297 -155 421 -182 103
-21 193 -35 330 -49 110 -12 388 -7 520 10 19 2 60 7 90 10 86 10 128 15 230
30 152 23 165 25 370 60 295 51 529 89 615 100 28 4 59 8 70 10 11 1 47 6 80
9 33 4 67 9 75 11 8 2 51 7 95 10 44 4 96 8 115 11 99 12 245 18 425 18 241 0
321 -6 559 -40 15 -2 101 -22 190 -44 201 -50 235 -53 283 -29 35 17 47 37
177 296 262 522 396 812 396 856 0 8 -12 20 -27 26 -31 12 -143 36 -213 46
-25 3 -56 8 -70 10 -14 3 -47 7 -75 10 -27 2 -70 7 -95 10 -291 33 -490 36
-652 10 -191 -30 -167 -26 -323 -59 -401 -88 -1145 -317 -1847 -569 -98 -35
-178 -63 -178 -61 0 1 48 31 108 67 59 35 208 126 332 202 658 404 1050 591
1370 651 14 3 52 11 86 19 34 8 83 17 110 20 27 4 60 8 74 11 23 4 247 30 280
33 8 1 99 3 203 5 l187 3 89 179 c144 288 295 501 413 582 13 9 25 18 28 21 3
3 21 14 40 25 190 101 363 204 430 257 135 107 285 372 437 773 112 296 221
482 473 801 162 206 514 650 520 655 3 3 14 15 24 28 15 17 16 22 5 22 -8 0
-19 -4 -24 -9z"/>
</g>
</svg>
