<?xml version="1.0"?>
<svg xmlns="http://www.w3.org/2000/svg" viewBox="0 0 24 24">
    <path fill="#fff" d="M16.88,10.328c0,0-0.96,2.108-1.53,2.886c-0.373-0.882-1.317-2.885-3.351-2.754c-4.833,0.311-8,7.54-8,7.54 c-1.479,0.604-4,0.46-4,0.46s0.753,1.54,4,1.54c2.351,0,5.476-1.002,8.539-1.002c1.642,0,2.619,0.324,2.961,0.416 c0.605,0.164,0.706-0.164,0.706-0.164s1.882-3.635,1.794-3.824c-0.088-0.189-2.161-0.41-3-0.426c-2.299-0.042-8.25,2.225-9,2.46 c1.092-0.587,4.018-2.675,6.07-3.146s3.43-0.337,3.43-0.337s0.415-0.91,0.684-1.347c0.269-0.437,0.647-1.059,1.152-1.362 c0.504-0.302,1.479-0.748,1.824-1.168c0.344-0.42,0.748-0.986,1.34-2.641c0.514-1.437,1.5-2.46,3.5-5 C23.999,2.46,19.857,4.552,16.88,10.328z"/>
</svg>
